<?xml version="1.0" encoding="utf-8"?>
<svg version="1.1" xmlns="http://www.w3.org/2000/svg" xmlns:xlink="http://www.w3.org/1999/xlink" x="0px" y="0px"
	 viewBox="0 0 450 450" style="enable-background:new 0 0 450 450;" xml:space="preserve">
<style type="text/css">
	.st0{fill:#FFFFFF;}
</style>
<g>
	<g id="XMLID_880_">
		<g id="XMLID_881_">
			<path id="XMLID_906_" class="st0" d="M179.7,8.7l6,26.1c2-0.5,4.1-0.9,6.1-1.3l-5.2-26.3C184.4,7.6,182,8.1,179.7,8.7z"/>
			<path id="XMLID_905_" class="st0" d="M152.5,16.8l9.3,25.1c1.9-0.7,3.9-1.4,5.9-2.1l-8.5-25.4C156.9,15.2,154.7,16,152.5,16.8z"
				/>
			<path id="XMLID_904_" class="st0" d="M126.5,28.4l12.5,23.7c1.8-1,3.7-1.9,5.6-2.8l-11.7-24.1C130.7,26.3,128.5,27.3,126.5,28.4z
				"/>
			<path id="XMLID_903_" class="st0" d="M102.2,43.3l15.4,21.9c1.7-1.2,3.4-2.4,5.2-3.5l-14.7-22.4
				C106.1,40.6,104.1,41.9,102.2,43.3z"/>
			<path id="XMLID_902_" class="st0" d="M80,61.1l18.1,19.7c1.5-1.4,3.1-2.8,4.7-4.2L85.4,56.4C83.6,57.9,81.8,59.5,80,61.1z"/>
			<path id="XMLID_901_" class="st0" d="M60.4,81.6l20.4,17.3c1.3-1.6,2.7-3.2,4.1-4.7L65,76.3C63.4,78,61.9,79.8,60.4,81.6z"/>
			<path id="XMLID_900_" class="st0" d="M43.4,104.5L65.9,119c1.1-1.7,2.3-3.5,3.5-5.2l-22-15.2C46,100.5,44.7,102.5,43.4,104.5z"/>
			<path id="XMLID_899_" class="st0" d="M29.5,129.3l24.2,11.5c0.9-1.9,1.8-3.8,2.8-5.6l-23.8-12.3
				C31.6,125.1,30.6,127.2,29.5,129.3z"/>
			<path id="XMLID_898_" class="st0" d="M18.9,155.7l25.4,8.4c0.6-2,1.3-4,2.1-5.9L21.3,149C20.5,151.2,19.7,153.5,18.9,155.7z"/>
			<path id="XMLID_897_" class="st0" d="M11.8,183.3l26.3,5c0.4-2.1,0.8-4.1,1.3-6.1l-26.1-5.9C12.7,178.6,12.3,181,11.8,183.3z"/>
			<path id="XMLID_896_" class="st0" d="M8.3,211.6l26.7,1.6c0.1-2.1,0.3-4.2,0.5-6.2l-26.7-2.5C8.6,206.8,8.4,209.2,8.3,211.6z"/>
			<path id="XMLID_895_" class="st0" d="M8.4,240l26.7-1.9c-0.1-2.1-0.3-4.2-0.3-6.2l-26.7,1C8.2,235.3,8.3,237.7,8.4,240z"/>
			<path id="XMLID_894_" class="st0" d="M11,261.4c0.4,2.3,0.8,4.6,1.3,6.9l26.3-5.2c-0.4-2-0.8-4-1.1-6.2L11,261.4z"/>
			<path id="XMLID_893_" class="st0" d="M17.4,288.9c0.7,2.3,1.4,4.6,2.2,6.8l25.4-8.5c-0.7-1.9-1.3-4-1.9-6L17.4,288.9z"/>
			<path id="XMLID_892_" class="st0" d="M27.3,315.6c1,2.2,2,4.3,3,6.5l24.1-11.7c-0.9-1.9-1.8-3.8-2.6-5.7L27.3,315.6z"/>
			<path id="XMLID_891_" class="st0" d="M40.5,340.8c1.2,2,2.5,4,3.8,6l22.4-14.7c-1.1-1.7-2.3-3.5-3.3-5.3L40.5,340.8z"/>
			<path id="XMLID_890_" class="st0" d="M56.9,364c1.5,1.8,3,3.7,4.5,5.5L81.8,352c-1.4-1.6-2.7-3.2-4-4.8L56.9,364z"/>
			<path id="XMLID_889_" class="st0" d="M76.2,385c1.7,1.6,3.5,3.3,5.2,4.8l17.9-19.9c-1.6-1.4-3.1-2.8-4.6-4.3L76.2,385z"/>
			<path id="XMLID_888_" class="st0" d="M97.9,403.3c1.9,1.4,3.8,2.8,5.8,4.1l15.2-22c-1.7-1.2-3.4-2.4-5.1-3.6L97.9,403.3z"/>
			<path id="XMLID_887_" class="st0" d="M121.8,418.7c2.1,1.1,4.2,2.3,6.3,3.4l12.3-23.8c-1.9-1-3.7-2-5.5-3L121.8,418.7z"/>
			<path id="XMLID_886_" class="st0" d="M147.5,431c2.2,0.9,4.5,1.7,6.7,2.5l9.2-25.2c-1.9-0.7-3.9-1.5-5.9-2.2L147.5,431z"/>
			<path id="XMLID_885_" class="st0" d="M174.6,439.8c2.3,0.6,4.6,1.2,6.9,1.7l5.8-26.1c-2-0.5-4.1-0.9-6.1-1.5L174.6,439.8z"/>
			<path id="XMLID_884_" class="st0" d="M202.5,445.2c2.3,0.3,4.7,0.5,7.1,0.8l2.4-26.7c-2.1-0.2-4.2-0.4-6.2-0.7L202.5,445.2z"/>
			<path id="XMLID_883_" class="st0" d="M231,446.8c2.4,0,4.8-0.1,7.1-0.2l-1-26.7c-2.1,0.1-4.2,0.1-6.3,0.1L231,446.8z"/>
			<path id="XMLID_882_" class="st0" d="M259.3,444.8c2.3-0.3,4.7-0.7,7-1.1l-4.4-26.4c-2.1,0.3-4.1,0.7-6.2,0.9L259.3,444.8z"/>
		</g>
	</g>
</g>
</svg>
