<?xml version="1.0" encoding="utf-8"?>
<svg version="1.1" xmlns="http://www.w3.org/2000/svg" xmlns:xlink="http://www.w3.org/1999/xlink" x="0px" y="0px" viewBox="0 0 300 131" style="enable-background:new 0 0 300 131;" xml:space="preserve">
<style type="text/css">
	.st0{fill:#4F8700;}
	.st1{fill:#FFA300;}
	.st2{fill:#0094A8;}
	.st3{fill:#9AAF00;}
</style>
<g>
	<g>
		<path class="st0" d="M1.9,90.5h28.9c0,0,8,0.4,11.3-5.9c0,0,4.1-8.3,5-9.7h-29c0,0-7.7,0.2-10.5,7.1C7.6,82,4.6,88.5,1.9,90.5z"/>
		<path class="st1" d="M110.4,51.3l-12.5,11c-4.4-6.1-8.8-9.1-13.4-9.1c-2.2,0-4,0.6-5.4,1.8S77,57.5,77,59s0.5,2.9,1.5,4.2
			c1.4,1.8,5.5,5.6,12.3,11.4c6.4,5.4,10.3,8.8,11.7,10.2c3.4,3.4,5.8,6.7,7.3,9.9c1.4,3.1,2.1,6.6,2.1,10.3c0,7.3-2.5,13.2-7.5,18
			c-5,4.7-11.6,7.1-19.6,7.1c-6.3,0-11.8-1.5-16.5-4.6c-4.7-3.1-8.7-7.9-12-14.5l14.1-8.5c4.3,7.8,9.2,11.7,14.7,11.7
			c2.9,0,5.3-0.8,7.3-2.5s3-3.6,3-5.8c0-2-0.7-4-2.2-6s-4.8-5.1-9.8-9.2c-9.6-7.9-15.9-13.9-18.7-18.2c-2.8-4.3-4.2-8.5-4.2-12.8
			c0-6.1,2.3-11.4,7-15.8c4.7-4.4,10.4-6.6,17.3-6.6c4.4,0,8.6,1,12.6,3.1C101.4,42.2,105.7,45.9,110.4,51.3z"/>
		<path class="st2" d="M196.2,85.3l3.7-7.8l-24.3,0.2l-10,21H191c-2.4,5.2-5.7,9-9.7,11.5c-4,2.4-8.9,3.7-14.7,3.7
			c-8.9,0-16.5-3-22.6-8.9c-6.1-5.9-9.1-13.2-9.1-21.7c0-8.3,2.9-15.3,8.8-21s13.2-8.7,21.9-8.7c10,0,18.7,4,26.2,11.9l0.1-0.1
			l7.5-15.9c-4-3.7-8.2-6.4-12.3-8.2c-6.7-2.8-13.9-4.3-21.6-4.3c-14.7,0-26.6,5.2-35.8,15.4c-7.7,8.7-11.6,18.8-11.6,30.5
			c0,8.5,2.1,16.5,6.3,23.9c4.2,7.4,9.9,13.1,17.1,17c7.2,4,15.4,6,24.6,6c8.6,0,16.1-1.8,22.4-5.5c6.4-3.6,11.6-8.9,15.6-15.9
			c4-6.9,6-14.3,6-22v-1.2L196.2,85.3z"/>
		<g>
			<polygon class="st3" points="16.7,71.1 16.7,55.8 48.3,55.8 48.3,39.3 0,39.3 0,71.1 			"/>
			<polygon class="st3" points="16.7,96.7 0,96.7 0,127.8 48.3,127.8 48.3,111.2 16.7,111.2 			"/>
		</g>
	</g>
	<g>
		<g>
			<path class="st2" d="M246.5,105.8H219c-0.8,0-1.4-0.4-1.7-1c-0.3-0.7-0.2-1.5,0.4-2.2l10.8-12.9h5.3l-10.8,13h24.5
				c-1.7-2.8-3.4-5.9-4.8-8.9h4.5c1.9,4.3,4.7,8.4,7.9,12H246.5z M251.8,126.7c-0.7,0.8-1.7,1.2-2.7,1.2h-26.2c-1.1,0-2-0.4-2.7-1.1
				c-0.8-0.7-1.2-1.8-1.2-2.9V114c0-1.1,0.4-2.1,1.1-2.8c0.7-0.7,1.7-1.1,2.9-1.1h26c1.1,0,2.2,0.5,2.9,1.3c0.6,0.7,1,1.7,1,2.8v9.6
				C252.8,125.1,252.4,126,251.8,126.7z M248.8,114.6c0-0.7-0.6-1.3-1.3-1.3h-23.2c-0.6,0-1.3,0.5-1.3,1.2v9c0,0.6,0.4,1.1,1,1.1
				h23.7c0.4,0,1.1-0.5,1.1-1.1V114.6z"/>
			<path class="st2" d="M264.6,127.6l-3.7,0.5c1.5-4,3.5-11.3,3.9-15.8h3.8c-0.5,3.7-2,10.5-3.1,14.2
				C265.4,126.9,264.7,127.3,264.6,127.6z M264.8,98.9c-1.1-2.1-3-6.6-3.8-9.2h4c0.6,2.4,2.6,6.8,4,9.2H264.8z M264.7,110.1
				c-1.2-2.3-3-7-3.6-9.7h4c0.6,2.6,2.6,7.2,4,9.7H264.7z M271.6,109h-2.5c0.5-1.5,0.9-4.3,1.1-6.4h2.2
				C272.3,104.6,272.1,107.3,271.6,109z M293.1,99.3h3.1c-0.2-0.6-0.4-1.7-0.5-2.2h2.4c0.2,1.1,0.8,3.3,1.3,4.5h-2.5
				c-0.2-0.4-0.4-1.3-0.6-1.8l-1.1,1.8H291c-0.8,0-1.4-0.4-1.5-0.9c-0.2-0.5,0-1.2,0.6-1.8c0.9-0.9,2.2-2.4,2.7-3h-1.4
				c-0.4,0-0.8-0.1-1.1-0.3c-0.4-0.2-0.5-0.6-0.7-1h-10.4v-1c-1.3,1.4-4.3,4.4-5.8,5.9h3.1c-0.1-0.6-0.4-1.5-0.4-2.1h2.4
				c0.1,1.2,0.7,3.2,1.1,4.3h-2.5c-0.1-0.4-0.4-1.1-0.5-1.5l-1,1.5h-4.9c-0.5,0-1-0.4-1.1-0.8c-0.2-0.4-0.2-1,0.2-1.4
				c1.1-1,2.5-2.6,3.4-3.6h-2.1c-0.6,0-1.1-0.4-1.3-0.8c-0.2-0.5-0.2-1.2,0.2-1.6c0.9-0.9,2.7-2.8,3.6-3.8h3.7c-1,1.1-3,3.2-4,4.2
				h1.9c0.3-0.3,0.9-0.9,1.1-1.2h2.8V92h3.4c-0.2-0.6-0.5-1.7-0.6-2.3h3.6c0,0.6,0.4,1.7,0.6,2.3h3.8v1.2c0.9-0.9,2.4-2.7,3.1-3.6
				h3.3c-0.8,1.1-2.5,3.2-3.5,4.2h1.8c0.5-0.5,1.2-1.3,1.6-1.8h3.3C298,93.9,295.2,97.1,293.1,99.3z M297.6,127
				c-0.6,0.7-1.5,1.1-2.4,1.1h-11.9l-1.7-2.8h12.1c0.4,0,0.7-0.5,0.7-0.9v-1c0-0.4-0.4-0.9-0.7-0.9h-19.5c-0.9,0-1.7-0.3-2.2-0.8
				s-0.7-1.1-0.7-2v-1.5c0-1.1,0.4-1.9,1.1-2.5c0.6-0.4,1.3-0.6,2.3-0.6H293c0.4,0,0.8-0.5,0.8-0.8v-0.5c0-0.4-0.4-0.7-0.7-0.7
				h-22.3v-2.5h24.1c1,0,1.8,0.3,2.3,0.7c0.4,0.4,0.7,1,0.7,1.8v2c0,0.8-0.3,1.5-0.8,2c-0.5,0.4-1.3,0.7-2.1,0.7h-19
				c-0.4,0-0.7,0.4-0.7,0.7v0.7c0,0.4,0.4,0.7,0.7,0.7h19.6c0.8,0,1.4,0.3,1.9,0.7c0.6,0.6,0.9,1.3,0.9,2.1v2.4
				C298.3,125.9,298,126.6,297.6,127z M273.8,109c-0.2-1.5-0.5-4.7-0.5-6.4h2c0,1.6,0.3,4.7,0.6,6.4H273.8z M276.9,109
				c-0.4-1.8-0.7-4.8-0.7-6.4h2c0,1.8,0.5,4.8,0.8,6.4H276.9z M288.4,108.4c-0.4,0.4-0.9,0.6-1.6,0.6h-5.1c-0.7,0-1.3-0.2-1.6-0.6
				c-0.4-0.4-0.6-0.9-0.6-1.6v-1.9c0-0.8,0.3-1.5,0.8-1.9c0.4-0.3,0.9-0.4,1.6-0.4h4.9c0.7,0,1.3,0.3,1.7,0.7
				c0.3,0.4,0.5,0.9,0.5,1.5v2C289,107.5,288.7,108,288.4,108.4z M280,98v-2.2h8.9V98H280z M280,101.4v-2.2h8.9v2.2H280z
				 M285.9,105.4c0-0.3-0.3-0.7-0.6-0.7h-2.2c-0.3,0-0.7,0.3-0.7,0.7v0.7c0,0.4,0.3,0.7,0.7,0.7h2.3c0.3,0,0.5-0.3,0.5-0.6
				L285.9,105.4L285.9,105.4z M291.5,108.9h-2.4c0.6-1.9,1-4.7,1.1-6.4h2.2C292.4,104.3,292,107.2,291.5,108.9z M293.7,108.9
				c-0.3-1.4-0.5-4.6-0.4-6.4h2c0,1.7,0.4,5,0.7,6.4H293.7z M297.1,108.9c-0.3-1.5-0.7-4.7-0.8-6.4h2.1c0.1,1.6,0.5,4.8,0.8,6.4
				H297.1z"/>
			<polygon class="st3" points="242.4,45.5 235.3,45.5 227.7,38.6 234.8,38.6 			"/>
		</g>
		<g>
			<polygon class="st2" points="285.1,44.9 276.6,44.9 276.6,47.5 297.9,47.5 297.9,44.9 288.9,44.9 288.9,43.3 299.1,43.3 
				299.1,40.6 288.9,40.6 288.9,38.4 285.1,38.4 285.1,40.6 275.1,40.6 275.1,43.3 285.1,43.3 			"/>
			<path class="st2" d="M298.6,53.6v-1.7c0-0.9-0.3-1.7-1-2.3c-0.5-0.4-1.2-0.7-2.1-0.7h-17.1c-0.7,0-1.3,0.3-1.8,0.7
				c-0.6,0.5-1,1.3-1,2v2.1c0,0.7,0.4,1.5,0.9,2.1c0.4,0.4,1,0.7,1.7,0.7h17.3c1.1,0,1.8-0.3,2.2-0.7
				C298.4,55.2,298.6,54.4,298.6,53.6z M282.3,53.8h-2.1c-0.3,0-0.7-0.3-0.7-0.7v-0.8c0-0.3,0.4-0.7,0.7-0.7h2.1V53.8z M288.5,53.8
				h-2.8v-2.2h2.8V53.8z M294.8,53c0,0.4-0.4,0.7-0.9,0.7h-2v-2.2h2c0.4,0,0.9,0.4,0.9,0.7V53z"/>
			<path class="st2" d="M266.9,64.4c0,3.9,0.5,8.6,1,12.3h3.5c-0.8-3.9-1-8.1-1.2-12.3H266.9z"/>
			<path class="st2" d="M275.2,76.7h6.2c1.8-1,3.6-2.3,5.1-3.9H281C279.2,74.5,277.2,75.7,275.2,76.7z"/>
			<path class="st2" d="M274.8,64.4h-3.2c0.3,3.5,0.6,7,1.2,10.4h3.4C275.3,71.3,274.8,67.5,274.8,64.4z"/>
			<path class="st2" d="M280.3,57.9c-0.8,0-1.5,0.3-2.1,0.7c-0.7,0.5-1.1,1.3-1.1,2.1v8c0,0.7,0.3,1.4,0.7,1.9
				c0.5,0.6,1.2,1.1,2,1.1H294c0.9,0,1.8-0.4,2.3-1c0.5-0.5,0.8-1.3,0.8-2v-7.5c0-1-0.4-1.8-0.9-2.4s-1.3-1-2.2-1h-13.7V57.9z
				 M293.4,68.4c0,0.4-0.4,0.7-0.7,0.7h-11c-0.3,0-0.7-0.4-0.7-0.8v-0.6h12.4L293.4,68.4L293.4,68.4z M293.4,65.4H281V64h12.4V65.4z
				 M293.4,61.7H281v-0.6c0-0.3,0.4-0.7,0.8-0.7h10.9c0.3,0,0.7,0.3,0.7,0.7V61.7z"/>
			<path class="st2" d="M294.4,72.7h-5.3c1.2,1.4,2.9,2.9,4.4,3.9h6.5C298.1,75.6,295.9,74.2,294.4,72.7z"/>
			<path class="st2" d="M262.9,51.1h4.4l-5.6,8.1c-0.7,1-0.7,1.8-0.3,2.5c0.4,0.7,1.2,1.2,2.1,1.2h7l1.2-2.3
				c0.2,0.7,0.5,1.7,0.8,2.3h3.6c-0.7-2-1.7-5.7-2.1-8h-3.4c0.2,1.4,0.7,3.9,1,5h-6l10-14.5h-4.5l-1.8,2.7h-3.9l6.2-9.7h-4.2
				l-6.1,9.7c-0.4,0.7-0.4,1.4,0,2C261.6,50.7,262.3,51.1,262.9,51.1z"/>
			<path class="st2" d="M261.1,73.2c-0.3,0.8-1,0.8-1.2,0.8h-3.4c-0.7-0.1-0.8-0.2-1.3-0.5c-4.9-3.6-8.7-8.5-12.1-13.2
				c4.1-3.4,8-7.6,9.9-12.2h-4.6c-1.6,3.4-4.3,6.6-7.5,9c-1-1.4-2.1-3.3-3-5.1v-1.4c0-1.1-0.4-2.1-1-2.8c-0.7-0.7-1.8-1.1-2.8-1.1
				h-10.3v3h9c0.7,0,1,0.5,1,1.1v21.8c0,0.7-0.6,1.2-1.2,1.2h-6l1.5,3h5.6c1.2,0,2.2-0.4,2.9-1c0.8-0.7,1.2-1.9,1.2-3.3V59
				c3,5.2,7.1,10.7,11.8,15.1c0,0,0.4,0.3,0.7,0.6c0.7,0.6,1,0.6,1.8,0.6h10.4c0.7,0,1.4-0.5,1.7-1.5c0.3-0.4,1.3-5.3,1.4-9.4h-3.3
				C262.5,67.5,261.9,70.8,261.1,73.2z"/>
			<path class="st2" d="M232.1,55c-0.6-0.9-1.7-1.5-3.1-1.5h-10.6v3h9.6c0.3,0,0.6,0.4,0.5,0.7c-2.6,6.4-6.7,11.6-11.9,16.5h5.6
				c4-4,7.5-8.7,10.1-15.1C232.8,57.2,232.6,55.9,232.1,55z"/>
		</g>
		<path class="st2" d="M261.8,125.7c0,0,0,0.1-0.1,0.1c-0.4,0.9-1.1,0.8-1.3,0.9h-2.3c-0.1,0-0.1,0-0.2,0c-0.2,0.6-0.5,1.1-0.8,1.5
			h6.4c1-0.1,1.7-0.6,2-1.6c0.1-0.1,0.1-0.5,0.3-0.9H261.8z"/>
	</g>
</g>
</svg>
